<svg id="Layer_1" enable-background="new 0 0 512.002 512.002" height="512" viewBox="0 0 512.002 512.002" width="512" xmlns="http://www.w3.org/2000/svg"><g><g><path d="m414.128 61.712 13.248-13.098v-19c0-11.826-9.675-21.501-21.501-21.501h-211.998c-11.826 0-21.501 9.675-21.501 21.501v19l17.085 13.098v379.978l-17.085 22.924v19c0 11.826 9.675 21.501 21.501 21.501h211.998c11.826 0 21.501-9.675 21.501-21.501v-19l-13.248-22.924z" fill="#8479c2"/><path d="m220.918 483.614v-19l17.085-22.924v-379.978l-17.085-13.098v-19c0-11.826 9.675-21.501 21.501-21.501h-48.542c-11.826 0-21.501 9.675-21.501 21.501v19l17.085 13.098v379.978l-17.085 22.924v19c0 11.826 9.675 21.501 21.501 21.501h48.542c-11.826 0-21.501-9.675-21.501-21.501z" fill="#6e60b8"/><path d="m363.284 48.614c-4.464 0-8.443 2.543-10.623 6.439-3.296 5.89-9.589 9.895-16.785 9.895h-72c-7.196 0-13.489-4.005-16.785-9.895-2.18-3.896-6.159-6.439-10.623-6.439h-64.092v72.426l16.418 15.288v201.493l-16.417 14.679v112.115h255v-416h-64.093z" fill="#80b4fb"/><g><path d="m237.336 337.821v-201.493l-16.418-15.288v-72.426h-48.541v72.426l16.418 15.288v201.493l-16.418 14.679v112.114h48.541v-112.114z" fill="#61a2f9"/></g><path d="m319.744 121.04h-199.651c-19.356 0-35.193 15.837-35.193 35.193v161.074c0 19.356 15.837 35.193 35.193 35.193h116.326c8.388 0 16.253 4.08 21.083 10.938l33.248 47.204c4.363 6.194 14.105 3.107 14.105-4.469v-38.784c0-8.223 6.666-14.889 14.889-14.889 19.356 0 35.193-15.837 35.193-35.193v-161.074c-.001-19.356-15.837-35.193-35.193-35.193z" fill="#b3e59f"/><g><path d="m139.397 317.307v-161.074c0-19.356 15.837-35.193 35.193-35.193h-54.497c-19.356 0-35.193 15.837-35.193 35.193v161.074c0 19.356 15.837 35.193 35.193 35.193h54.498c-19.357 0-35.194-15.837-35.194-35.193z" fill="#95d6a4"/></g></g><g><path d="m279.104 41.168h41.271c4.143 0 7.5-3.358 7.5-7.5s-3.357-7.5-7.5-7.5h-41.271c-4.143 0-7.5 3.358-7.5 7.5s3.357 7.5 7.5 7.5z"/><path d="m139.627 265.645h160.308c4.143 0 7.5-3.358 7.5-7.5s-3.357-7.5-7.5-7.5h-160.308c-4.143 0-7.5 3.358-7.5 7.5s3.357 7.5 7.5 7.5z"/><path d="m139.627 305.788h160.308c4.143 0 7.5-3.358 7.5-7.5s-3.357-7.5-7.5-7.5h-160.308c-4.143 0-7.5 3.358-7.5 7.5s3.357 7.5 7.5 7.5z"/><path d="m139.627 185.359h160.308c4.143 0 7.5-3.358 7.5-7.5s-3.357-7.5-7.5-7.5h-160.308c-4.143 0-7.5 3.358-7.5 7.5s3.357 7.5 7.5 7.5z"/><path d="m139.627 225.501h160.308c4.143 0 7.5-3.358 7.5-7.5s-3.357-7.5-7.5-7.5h-160.308c-4.143 0-7.5 3.358-7.5 7.5s3.357 7.5 7.5 7.5z"/><path d="m119.955 359.387h44.784v123.614c0 15.991 13.01 29.001 29.001 29.001h211.998c15.991 0 29.001-13.01 29.001-29.001 0-7.789 0-446.229 0-454 0-15.991-13.01-29.001-29.001-29.001h-211.998c-15.991 0-29.001 13.01-29.001 29.001v83.926h-44.784c-23.541 0-42.692 19.152-42.692 42.692v161.075c0 23.541 19.151 42.693 42.692 42.693zm73.785-344.387h211.998c7.72 0 14.001 6.281 14.001 14.001v11.5h-56.593c-7.043 0-13.621 3.938-17.168 10.277-2.091 3.736-6.014 6.057-10.239 6.057h-72c-4.226 0-8.148-2.321-10.24-6.059-3.548-6.338-10.126-10.275-17.167-10.275h-56.593v-11.5c0-7.72 6.282-14.001 14.001-14.001zm-101.477 140.619c0-15.27 12.423-27.692 27.692-27.692h199.651c15.27 0 27.692 12.423 27.692 27.692v70.637c0 4.142 3.357 7.5 7.5 7.5s7.5-3.358 7.5-7.5v-70.637c0-23.541-19.151-42.692-42.692-42.692h-139.867v-57.426h56.593c1.642 0 3.166.973 4.078 2.601 4.738 8.471 13.678 13.733 23.329 13.733h72c9.651 0 18.591-5.262 23.329-13.733.911-1.628 2.436-2.601 4.078-2.601h56.593v401h-100.468c-4.143 0-7.5 3.358-7.5 7.5s3.357 7.5 7.5 7.5h100.468v11.5c0 7.72-6.281 14.001-14.001 14.001h-211.998c-7.72 0-14.001-6.281-14.001-14.001v-11.5h104.532c4.143 0 7.5-3.358 7.5-7.5s-3.357-7.5-7.5-7.5h-104.532v-97.114h56.541c5.937 0 11.525 2.894 14.951 7.757l33.248 47.205c8.682 12.326 27.737 5.888 27.737-8.789v-38.784c0-3.565 2.539-6.549 5.902-7.239.481-.099.978-.15 1.487-.15 23.541 0 42.692-19.152 42.692-42.693v-55.438c0-4.142-3.357-7.5-7.5-7.5s-7.5 3.358-7.5 7.5v55.438c0 .477-.012.952-.036 1.423-.743 14.611-12.864 26.27-27.656 26.27-8.102 0-15.212 4.326-19.144 10.789-2.059 3.385-3.246 7.357-3.246 11.601 0 39.803-.005 38.936-.005 38.936-.05.057-.275.145-.353.131-.067-.047-33.317-47.272-33.364-47.338-6.226-8.84-16.401-14.119-27.215-14.119-11.366 0-103.672 0-116.325 0-15.27 0-27.692-12.423-27.692-27.693v-161.075z"/></g></g></svg>