<svg id="Layer_1" data-name="Layer 1" xmlns="http://www.w3.org/2000/svg" viewBox="0 0 1920 1080"><defs><style>.cls-1{fill:#0071bc;}.cls-2{fill:#22b573;}.cls-3{fill:#ed1c24;}.cls-4{font-size:36px;font-family:MyriadPro-Regular, Myriad Pro;}.cls-5{letter-spacing:-0.03em;}</style></defs><rect class="cls-1" x="552" y="457" width="93" height="405"/><rect class="cls-1" x="723" y="335" width="93" height="527"/><rect class="cls-2" x="914" y="241" width="93" height="621"/><rect class="cls-3" x="1089" y="622" width="93" height="240"/><rect class="cls-1" x="1271" y="389" width="93" height="473"/><rect class="cls-1" x="1421" y="758" width="93" height="104"/><path d="M1541.94,196A17.08,17.08,0,0,1,1559,213.06V843.94A17.08,17.08,0,0,1,1541.94,861H506.06A17.08,17.08,0,0,1,489,843.94V213.06A17.08,17.08,0,0,1,506.06,196H1541.94m0-1H506.06A18.07,18.07,0,0,0,488,213.06V843.94A18.07,18.07,0,0,0,506.06,862H1541.94A18.07,18.07,0,0,0,1560,843.94V213.06A18.07,18.07,0,0,0,1541.94,195Z"/><text class="cls-4" transform="translate(543.72 917.7)"><tspan class="cls-5">W</tspan><tspan x="29.27" y="0">eek 1</tspan></text><text class="cls-4" transform="translate(715.72 917.7)"><tspan class="cls-5">W</tspan><tspan x="29.27" y="0">eek 2</tspan></text><text class="cls-4" transform="translate(911.72 917.7)"><tspan class="cls-5">W</tspan><tspan x="29.27" y="0">eek 3</tspan></text><text class="cls-4" transform="translate(1084.72 917.7)"><tspan class="cls-5">W</tspan><tspan x="29.27" y="0">eek 4</tspan></text><text class="cls-4" transform="translate(1264.72 917.7)"><tspan class="cls-5">W</tspan><tspan x="29.27" y="0">eek 5</tspan></text><text class="cls-4" transform="translate(1419.72 917.7)"><tspan class="cls-5">W</tspan><tspan x="29.27" y="0">eek 6</tspan></text></svg>